<svg width="25" height="28" viewBox="0 0 25 28" fill="none" xmlns="http://www.w3.org/2000/svg">
<g clip-path="url(#clip0)">
<path d="M10.3188 3.65857L11.5212 2.44451C12.0304 1.93044 12.8538 1.93044 13.3575 2.44451L23.8875 13.0703C24.3967 13.5844 24.3967 14.4156 23.8875 14.9242L13.3575 25.5554C12.8483 26.0695 12.025 26.0695 11.5212 25.5554L10.3188 24.3414C9.80417 23.8219 9.815 22.9742 10.3404 22.4656L16.8675 16.1875H1.3C0.579583 16.1875 0 15.6023 0 14.875V13.125C0 12.3976 0.579583 11.8125 1.3 11.8125H16.8675L10.3404 5.53435C9.80958 5.02576 9.79875 4.1781 10.3188 3.65857Z" fill="white"/>
</g>
<defs>
<clipPath id="clip0">
<rect width="24.2667" height="28" fill="white"/>
</clipPath>
</defs>
</svg>
