<svg width="25" height="25" viewBox="0 0 25 25" fill="none" xmlns="http://www.w3.org/2000/svg">
<path d="M12.4999 2.08331C6.74992 2.08331 2.08325 6.74998 2.08325 12.5C2.08325 18.25 6.74992 22.9166 12.4999 22.9166C18.2499 22.9166 22.9166 18.25 22.9166 12.5C22.9166 6.74998 18.2499 2.08331 12.4999 2.08331ZM4.16659 12.5C4.16659 7.89581 7.89575 4.16665 12.4999 4.16665C14.427 4.16665 16.1978 4.8229 17.6041 5.92706L5.927 17.6041C4.82284 16.1979 4.16659 14.4271 4.16659 12.5ZM12.4999 20.8333C10.5728 20.8333 8.802 20.1771 7.39575 19.0729L19.0728 7.39581C20.177 8.80206 20.8333 10.5729 20.8333 12.5C20.8333 17.1041 17.1041 20.8333 12.4999 20.8333Z" fill="#8B008A"/>
</svg>
