<svg width="25" height="25" viewBox="0 0 25 25" fill="none" xmlns="http://www.w3.org/2000/svg">
<path d="M20.8333 17.8854L17.3229 14.3646C17.9895 14.5937 18.6041 14.8646 19.1666 15.1562C20.177 15.6875 20.8125 16.7396 20.8333 17.8854ZM22.0729 22.0729L20.6041 23.5416L17.8854 20.8333H4.16663V17.9375C4.16663 16.7708 4.80204 15.6979 5.84371 15.1666C7.18746 14.4791 8.83329 13.8958 10.7083 13.6562L1.44788 4.39581L2.91663 2.92706L22.0729 22.0729ZM15.802 18.75L12.677 15.625C12.6145 15.625 12.5625 15.625 12.5 15.625C10.0312 15.625 8.03121 16.3854 6.79163 17.0208C6.45829 17.1875 6.24996 17.5416 6.24996 17.9375V18.75H15.802ZM12.5 6.24998C13.6458 6.24998 14.5833 7.18748 14.5833 8.33331C14.5833 9.22915 14.0208 9.98956 13.2291 10.2812L14.7708 11.8229C15.9166 11.0833 16.6666 9.79165 16.6666 8.33331C16.6666 6.03123 14.802 4.16665 12.5 4.16665C11.0416 4.16665 9.74996 4.91665 9.01038 6.06248L10.552 7.60415C10.8437 6.81248 11.6041 6.24998 12.5 6.24998Z" fill="#8B008A"/>
</svg>
