<svg width="50" height="50" viewBox="0 0 50 50" fill="none" xmlns="http://www.w3.org/2000/svg">
<path d="M25 4.16669C13.5 4.16669 4.16663 13.5 4.16663 25C4.16663 36.5 13.5 45.8334 25 45.8334C36.5 45.8334 45.8333 36.5 45.8333 25C45.8333 13.5 36.5 4.16669 25 4.16669ZM25 41.6667C15.8125 41.6667 8.33329 34.1875 8.33329 25C8.33329 15.8125 15.8125 8.33335 25 8.33335C34.1875 8.33335 41.6666 15.8125 41.6666 25C41.6666 34.1875 34.1875 41.6667 25 41.6667ZM26.8541 23.125C23.1458 21.8959 21.3541 21.125 21.3541 19.1667C21.3541 17.0417 23.6666 16.2709 25.125 16.2709C27.8541 16.2709 28.8541 18.3334 29.0833 19.0625L32.375 17.6667C32.0625 16.75 30.6666 13.6875 26.8333 13.0209V10.4167H23.1875V13.0417C17.7708 14.2084 17.7291 18.9792 17.7291 19.2084C17.7291 23.9375 22.4166 25.2709 24.7083 26.1042C28 27.2709 29.4583 28.3334 29.4583 30.3334C29.4583 32.6875 27.2708 33.6875 25.3333 33.6875C21.5416 33.6875 20.4583 29.7917 20.3333 29.3334L16.875 30.7292C18.1875 35.2917 21.625 36.5209 23.1666 36.8959V39.5834H26.8125V37C27.8958 36.8125 33.1041 35.7709 33.1041 30.2917C33.125 27.3959 31.8541 24.8542 26.8541 23.125Z" fill="#8B008A"/>
</svg>
