<svg width="118" height="105" viewBox="0 0 118 105" fill="none" xmlns="http://www.w3.org/2000/svg">
<path d="M82.4771 17.0625L100.956 35.5605C101.734 36.3398 101.734 37.6113 100.956 38.3906L56.2139 83.1797L37.2028 85.292C34.6625 85.5791 32.5115 83.4258 32.7983 80.8828L34.9083 61.8516L79.65 17.0625C80.4285 16.2832 81.6986 16.2832 82.4771 17.0625ZM115.665 12.3662L105.667 2.3584C102.553 -0.758789 97.4934 -0.758789 94.359 2.3584L87.1069 9.61816C86.3285 10.3975 86.3285 11.6689 87.1069 12.4482L105.585 30.9463C106.364 31.7256 107.634 31.7256 108.412 30.9463L115.665 23.6865C118.778 20.5488 118.778 15.4834 115.665 12.3662V12.3662ZM78.6667 70.998V91.875H13.1111V26.25H60.1882C60.8437 26.25 61.4583 25.9834 61.9295 25.5322L70.124 17.3291C71.6809 15.7705 70.5746 13.125 68.3826 13.125H9.83333C4.40451 13.125 0 17.5342 0 22.9687V95.1562C0 100.591 4.40451 105 9.83333 105H81.9444C87.3733 105 91.7778 100.591 91.7778 95.1562V62.7949C91.7778 60.6006 89.1351 59.5137 87.5781 61.0518L79.3837 69.2549C78.933 69.7266 78.6667 70.3418 78.6667 70.998Z" fill="#8B008A"/>
</svg>
