<svg width="50" height="50" viewBox="0 0 50 50" fill="none" xmlns="http://www.w3.org/2000/svg">
<path d="M41.6666 35.7708L34.6458 28.7291C35.9791 29.1875 37.2083 29.7291 38.3333 30.3125C40.3541 31.375 41.6249 33.4791 41.6666 35.7708ZM44.1458 44.1458L41.2083 47.0833L35.7708 41.6666H8.33325V35.875C8.33325 33.5416 9.60409 31.3958 11.6874 30.3333C14.3749 28.9583 17.6666 27.7916 21.4166 27.3125L2.89575 8.79163L5.83325 5.85413L44.1458 44.1458ZM31.6041 37.5L25.3541 31.25C25.2291 31.25 25.1249 31.25 24.9999 31.25C20.0624 31.25 16.0624 32.7708 13.5833 34.0416C12.9166 34.375 12.4999 35.0833 12.4999 35.875V37.5H31.6041ZM24.9999 12.5C27.2916 12.5 29.1666 14.375 29.1666 16.6666C29.1666 18.4583 28.0416 19.9791 26.4583 20.5625L29.5416 23.6458C31.8333 22.1666 33.3333 19.5833 33.3333 16.6666C33.3333 12.0625 29.6041 8.33329 24.9999 8.33329C22.0833 8.33329 19.4999 9.83329 18.0208 12.125L21.1041 15.2083C21.6874 13.625 23.2083 12.5 24.9999 12.5Z" fill="#E23A3A"/>
</svg>
