<svg width="50" height="50" viewBox="0 0 50 50" fill="none" xmlns="http://www.w3.org/2000/svg">
<path d="M41.6666 35.7709L34.6458 28.7292C35.9791 29.1875 37.2083 29.7292 38.3333 30.3125C40.3541 31.375 41.6249 33.4792 41.6666 35.7709ZM44.1458 44.1459L41.2083 47.0834L35.7708 41.6667H8.33325V35.875C8.33325 33.5417 9.60409 31.3959 11.6874 30.3334C14.3749 28.9584 17.6666 27.7917 21.4166 27.3125L2.89575 8.79169L5.83325 5.85419L44.1458 44.1459ZM31.6041 37.5L25.3541 31.25C25.2291 31.25 25.1249 31.25 24.9999 31.25C20.0624 31.25 16.0624 32.7709 13.5833 34.0417C12.9166 34.375 12.4999 35.0834 12.4999 35.875V37.5H31.6041ZM24.9999 12.5C27.2916 12.5 29.1666 14.375 29.1666 16.6667C29.1666 18.4584 28.0416 19.9792 26.4583 20.5625L29.5416 23.6459C31.8333 22.1667 33.3333 19.5834 33.3333 16.6667C33.3333 12.0625 29.6041 8.33335 24.9999 8.33335C22.0833 8.33335 19.4999 9.83335 18.0208 12.125L21.1041 15.2084C21.6874 13.625 23.2083 12.5 24.9999 12.5Z" fill="#8B008A"/>
</svg>
