<svg width="28" height="26" viewBox="0 0 28 26" fill="none" xmlns="http://www.w3.org/2000/svg">
<path d="M1 5.25H27C27.5523 5.25 28 4.80231 28 4.25V1.75C28 1.19769 27.5523 0.75 27 0.75H1C0.447688 0.75 0 1.19769 0 1.75V4.25C0 4.80231 0.447688 5.25 1 5.25ZM1 15.25H27C27.5523 15.25 28 14.8023 28 14.25V11.75C28 11.1977 27.5523 10.75 27 10.75H1C0.447688 10.75 0 11.1977 0 11.75V14.25C0 14.8023 0.447688 15.25 1 15.25ZM1 25.25H27C27.5523 25.25 28 24.8023 28 24.25V21.75C28 21.1977 27.5523 20.75 27 20.75H1C0.447688 20.75 0 21.1977 0 21.75V24.25C0 24.8023 0.447688 25.25 1 25.25Z" fill="white"/>
</svg>
