<svg width="50" height="50" viewBox="0 0 50 50" fill="none" xmlns="http://www.w3.org/2000/svg">
<path d="M18.75 28.6459C13.875 28.6459 4.16663 31.0834 4.16663 35.9375V39.5834H33.3333V35.9375C33.3333 31.0834 23.625 28.6459 18.75 28.6459ZM9.04163 35.4167C10.7916 34.2084 15.0208 32.8125 18.75 32.8125C22.4791 32.8125 26.7083 34.2084 28.4583 35.4167H9.04163ZM18.75 25C22.7708 25 26.0416 21.7292 26.0416 17.7084C26.0416 13.6875 22.7708 10.4167 18.75 10.4167C14.7291 10.4167 11.4583 13.6875 11.4583 17.7084C11.4583 21.7292 14.7291 25 18.75 25ZM18.75 14.5834C20.4791 14.5834 21.875 15.9792 21.875 17.7084C21.875 19.4375 20.4791 20.8334 18.75 20.8334C17.0208 20.8334 15.625 19.4375 15.625 17.7084C15.625 15.9792 17.0208 14.5834 18.75 14.5834ZM33.4166 28.7709C35.8333 30.5209 37.5 32.8542 37.5 35.9375V39.5834H45.8333V35.9375C45.8333 31.7292 38.5416 29.3334 33.4166 28.7709ZM31.25 25C35.2708 25 38.5416 21.7292 38.5416 17.7084C38.5416 13.6875 35.2708 10.4167 31.25 10.4167C30.125 10.4167 29.0833 10.6875 28.125 11.1459C29.4375 13 30.2083 15.2709 30.2083 17.7084C30.2083 20.1459 29.4375 22.4167 28.125 24.2709C29.0833 24.7292 30.125 25 31.25 25Z" fill="#8B008A"/>
</svg>
