<svg width="50" height="50" viewBox="0 0 50 50" fill="none" xmlns="http://www.w3.org/2000/svg">
<path d="M31.625 22.7917C32.0417 21.875 32.2917 20.875 32.2917 19.7917C32.2917 15.7708 29.0208 12.5 25 12.5C23.9167 12.5 22.9167 12.75 22 13.1667L31.625 22.7917Z" fill="#8B008A"/>
<path d="M25 4.16669C13.5 4.16669 4.16663 13.5 4.16663 25C4.16663 36.5 13.5 45.8334 25 45.8334C36.5 45.8334 45.8333 36.5 45.8333 25C45.8333 13.5 36.5 4.16669 25 4.16669ZM8.33329 25C8.33329 21.1459 9.64579 17.6042 11.8541 14.7917L17.8125 20.75C18.25 24 20.7916 26.5625 24.0416 26.9792L28.625 31.5625C27.4375 31.3542 26.2291 31.25 25 31.25C20.1666 31.25 15.7291 32.9167 12.2083 35.6667C9.79163 32.7709 8.33329 29.0625 8.33329 25ZM25 41.6667C21.375 41.6667 18.0416 40.5 15.3125 38.5417C18.0416 36.5834 21.375 35.4167 25 35.4167C28.625 35.4167 31.9583 36.5834 34.6875 38.5417C31.9583 40.5 28.625 41.6667 25 41.6667ZM38.1458 35.2084L14.7916 11.8542C17.6041 9.64585 21.1458 8.33335 25 8.33335C34.2083 8.33335 41.6666 15.7917 41.6666 25C41.6666 28.8542 40.3541 32.375 38.1458 35.2084Z" fill="#8B008A"/>
</svg>
