<svg width="50" height="50" viewBox="0 0 50 50" fill="none" xmlns="http://www.w3.org/2000/svg">
<path d="M25 4.16663C13.5 4.16663 4.16663 13.5 4.16663 25C4.16663 36.5 13.5 45.8333 25 45.8333C36.5 45.8333 45.8333 36.5 45.8333 25C45.8333 13.5 36.5 4.16663 25 4.16663ZM8.33329 25C8.33329 15.7916 15.7916 8.33329 25 8.33329C28.8541 8.33329 32.3958 9.64579 35.2083 11.8541L11.8541 35.2083C9.64579 32.3958 8.33329 28.8541 8.33329 25ZM25 41.6666C21.1458 41.6666 17.6041 40.3541 14.7916 38.1458L38.1458 14.7916C40.3541 17.6041 41.6666 21.1458 41.6666 25C41.6666 34.2083 34.2083 41.6666 25 41.6666Z" fill="#E23A3A"/>
</svg>
