<svg width="25" height="25" viewBox="0 0 25 25" fill="none" xmlns="http://www.w3.org/2000/svg">
<path d="M12.5001 6.24996C16.448 6.24996 19.9688 8.46871 21.6876 11.9791C19.9688 15.4895 16.448 17.7083 12.5001 17.7083C8.55216 17.7083 5.03133 15.4895 3.31258 11.9791C5.03133 8.46871 8.55216 6.24996 12.5001 6.24996ZM12.5001 4.16663C7.29175 4.16663 2.84383 7.40621 1.04175 11.9791C2.84383 16.552 7.29175 19.7916 12.5001 19.7916C17.7084 19.7916 22.1563 16.552 23.9584 11.9791C22.1563 7.40621 17.7084 4.16663 12.5001 4.16663ZM12.5001 9.37496C13.9376 9.37496 15.1042 10.5416 15.1042 11.9791C15.1042 13.4166 13.9376 14.5833 12.5001 14.5833C11.0626 14.5833 9.89591 13.4166 9.89591 11.9791C9.89591 10.5416 11.0626 9.37496 12.5001 9.37496ZM12.5001 7.29163C9.91675 7.29163 7.81258 9.39579 7.81258 11.9791C7.81258 14.5625 9.91675 16.6666 12.5001 16.6666C15.0834 16.6666 17.1876 14.5625 17.1876 11.9791C17.1876 9.39579 15.0834 7.29163 12.5001 7.29163Z" fill="#8B008A"/>
</svg>
